<?xml version="1.0" standalone="no"?>
<!DOCTYPE svg PUBLIC "-//W3C//DTD SVG 20010904//EN"
 "http://www.w3.org/TR/2001/REC-SVG-20010904/DTD/svg10.dtd">
<svg version="1.0" xmlns="http://www.w3.org/2000/svg"
 width="601.000000pt" height="601.000000pt" viewBox="0 0 601.000000 601.000000"
 preserveAspectRatio="xMidYMid meet">
<metadata>
Created by potrace 1.11, written by Peter Selinger 2001-2013
</metadata>
<g transform="translate(0.000000,601.000000) scale(0.100000,-0.100000)"
fill="#000000" stroke="none">
<path d="M4885 4942 c-256 -249 -631 -519 -936 -673 -196 -98 -448 -186 -654
-226 -132 -26 -484 -25 -613 1 -51 10 -90 22 -85 26 4 4 38 17 75 29 189 62
321 215 322 376 1 62 -2 74 -27 107 -42 54 -87 72 -164 65 -68 -7 -145 -32
-433 -142 -534 -204 -852 -202 -1165 8 -33 22 -106 87 -162 144 -91 94 -104
103 -122 93 -43 -22 -27 -54 87 -168 123 -124 203 -184 323 -242 144 -68 218
-83 414 -84 150 0 183 3 286 27 149 35 253 69 507 166 214 81 306 107 343 96
19 -6 21 -12 16 -49 -19 -135 -114 -237 -275 -296 -96 -34 -174 -49 -322 -59
-74 -5 -107 -11 -93 -16 13 -4 21 -11 18 -15 -6 -10 218 -102 325 -133 117
-34 254 -56 390 -63 467 -25 1045 184 1578 573 214 155 533 437 540 476 5 24
-36 67 -62 67 -13 0 -57 -36 -111 -88z"/>
<path d="M3935 4015 c-71 -16 -106 -37 -156 -93 -70 -78 -80 -116 -91 -355 -8
-177 -7 -216 6 -268 20 -77 37 -100 161 -225 123 -123 155 -139 277 -132 81 4
134 22 218 72 14 8 47 25 74 37 27 12 77 48 111 80 133 125 195 324 149 479
-21 70 -50 114 -118 178 -65 61 -137 98 -233 117 -48 9 -58 13 -33 13 19 1 65
-7 102 -17 72 -18 98 -13 98 19 0 37 -43 69 -115 85 -86 20 -379 27 -450 10z
m212 -111 c-3 -3 -12 -4 -19 -1 -8 3 -5 6 6 6 11 1 17 -2 13 -5z m119 -190
c19 -102 -18 -285 -75 -376 -29 -46 -33 -48 -76 -48 -64 0 -122 26 -143 64
-10 20 -16 54 -16 93 1 151 136 299 276 302 23 1 28 -4 34 -35z m174 -14 c38
-27 60 -88 60 -163 0 -123 -57 -260 -147 -358 -57 -62 -84 -71 -163 -60 l-45
6 35 28 c19 15 61 39 93 51 84 35 141 86 177 160 40 80 49 161 27 237 -18 61
-61 114 -85 104 -14 -5 -31 9 -32 27 0 10 47 -9 80 -32z m-60 -201 c-5 -28
-15 -58 -21 -67 -8 -14 -9 -13 -4 8 3 14 9 54 12 90 5 49 8 59 14 42 5 -12 4
-45 -1 -73z m-435 -237 c20 -19 48 -38 61 -44 25 -12 23 -28 -3 -28 -23 0
-101 66 -118 100 -22 43 -19 72 3 35 10 -17 36 -45 57 -63z m106 -202 c42 -19
43 -20 14 -20 -16 1 -48 9 -70 19 -37 18 -38 19 -14 20 15 1 46 -8 70 -19z"/>
<path d="M2015 3953 c-65 -9 -141 -36 -258 -92 -102 -49 -131 -69 -180 -120
-98 -102 -131 -202 -144 -433 -6 -110 18 -200 80 -289 86 -126 202 -189 348
-189 256 0 482 164 563 408 56 168 55 329 -2 471 -35 89 -144 201 -217 224
-55 18 -144 27 -190 20z m213 -131 c59 -27 112 -120 126 -222 l6 -45 -13 40
c-30 90 -91 176 -162 228 -31 23 -34 28 -15 22 14 -4 40 -14 58 -23z m-96 -68
c46 -25 57 -38 85 -94 18 -36 35 -81 38 -100 l6 -35 -19 30 c-23 37 -98 105
-114 105 -7 0 -35 22 -63 49 -27 28 -63 57 -80 66 l-30 17 62 -5 c42 -3 79
-14 115 -33z m-184 -60 c12 -4 22 -9 22 -13 0 -14 -97 -36 -140 -31 l-45 5 35
23 c34 22 83 28 128 16z m115 -135 c4 -16 3 -18 -9 -8 -16 13 -19 29 -5 29 5
0 11 -9 14 -21z m-313 -24 c0 -4 -7 -20 -16 -38 -9 -17 -20 -65 -25 -107 l-8
-75 4 95 c3 103 10 130 31 130 8 0 14 -2 14 -5z m232 -34 c27 -17 57 -48 73
-75 24 -41 25 -49 16 -98 -13 -71 -47 -162 -69 -181 -73 -67 -187 -50 -236 35
-19 33 -19 33 1 16 23 -21 46 -23 61 -5 8 10 7 27 -4 63 -21 68 -13 152 20
209 43 73 69 80 138 36z m218 -416 c-45 -46 -169 -125 -196 -125 -22 0 49 55
110 84 39 19 84 48 100 65 17 17 32 31 35 31 3 0 -19 -25 -49 -55z m-476 -119
c27 -14 56 -26 64 -26 9 0 13 -3 9 -6 -3 -3 -30 1 -59 10 -60 17 -130 72 -154
120 -14 27 -10 25 37 -21 30 -28 76 -63 103 -77z"/>
<path d="M4790 2949 c-153 -17 -260 -84 -497 -310 -206 -197 -305 -273 -448
-344 -191 -95 -376 -135 -620 -135 -231 0 -504 51 -732 136 -129 48 -206 87
-396 201 -260 156 -383 206 -647 261 -378 80 -576 60 -665 -66 -29 -42 -30
-48 -30 -145 0 -120 19 -186 97 -339 163 -319 468 -654 792 -870 409 -271 881
-391 1531 -392 167 0 263 5 350 18 486 71 858 257 1200 601 414 416 652 957
527 1201 -52 102 -159 169 -286 180 -33 3 -72 6 -86 8 -14 1 -54 -1 -90 -5z
m242 -113 c77 -18 106 -39 130 -94 18 -40 20 -59 15 -141 -15 -267 -229 -652
-532 -956 -276 -278 -595 -458 -954 -541 -58 -13 -106 -22 -107 -21 -2 1 -10
38 -19 82 -32 154 -90 261 -199 369 -115 113 -237 161 -411 160 -181 -1 -389
-65 -546 -169 -89 -59 -212 -179 -264 -258 -21 -31 -43 -57 -49 -57 -23 1
-221 91 -315 144 -122 69 -229 145 -346 247 -328 284 -603 731 -582 946 7 64
28 98 81 126 37 20 55 22 196 22 136 -1 174 -5 310 -34 277 -58 385 -102 654
-264 247 -148 418 -220 666 -280 178 -44 311 -60 495 -60 266 -1 467 45 675
154 134 70 238 150 425 330 217 207 294 263 408 294 67 18 196 18 269 1z
m-1891 -1266 c75 -23 140 -62 191 -115 67 -70 132 -228 140 -345 l3 -45 -55
-7 c-165 -19 -592 -5 -825 27 -122 18 -362 72 -370 85 -10 16 109 153 184 213
209 166 533 249 732 187z"/>
</g>
</svg>
